<svg xmlns="http://www.w3.org/2000/svg" width="72" height="32" viewBox="0 0 72 32">
    <g fill="none" fill-rule="evenodd">
        <path fill="#FFF" d="M27.634 11.435c.192-.03.207-.017.211.176v.1c0 3.166.012 6.333-.005 9.5-.007 1.286-.267 2.527-.866 3.677-.352.677-.829 1.241-1.491 1.63-.522.307-1.089.45-1.687.477-.595.027-1.177-.061-1.75-.214-.462-.124-.911-.285-1.351-.474-.177-.077-.187-.088-.146-.27.147-.652.299-1.304.449-1.956.009-.038.02-.077.053-.103.04.005.072.024.1.047l.082.071c.335.255.703.424 1.12.487.688.102 1.446-.258 1.795-.864.193-.333.296-.7.375-1.074.108-.507.128-1.022.147-1.537.004-.12-.005-.24-.04-.38-.065.071-.065.145-.08.21-.081.342-.212.661-.412.95-.33.478-.795.734-1.36.763-.856.043-1.636-.215-2.336-.711-.431-.306-.708-.734-.888-1.23-.148-.413-.232-.84-.274-1.273-.08-.827-.097-1.657-.077-2.487.036-1.433.071-2.864.067-4.297 0-.113-.004-.228-.001-.341.004-.194.018-.215.206-.256.583-.13 1.166-.256 1.749-.382l1.01-.218c.24-.052.249-.044.256.198.03 1.044.02 2.089.04 3.132.02 1.01.045 2.021.083 3.03.02.562.041 1.125.112 1.683.052.42.37.682.782.645.218-.02.387-.132.523-.297.138-.167.226-.363.287-.569.112-.374.162-.76.165-1.15.004-.608-.008-1.217-.007-1.827.001-1.325.006-2.65.01-3.976 0-.306 0-.308.295-.363l2.815-.521c.013-.003.027-.005.04-.006zm20.734.026c.994-.18 1.741.182 2.243 1.058.052.092.1.187.156.295.07-.063.054-.12.055-.17.002-.134-.002-.268-.002-.402 0-.222.014-.242.22-.28l2.798-.502c.198-.035.223-.014.23.183.002.073 0 .147 0 .22l-.002 8.654c0 .542.013 1.084-.043 1.625-.075.742-.212 1.468-.47 2.17-.34.929-.941 1.614-1.816 2.064-.605.31-1.236.507-1.916.552-.972.063-1.879-.161-2.744-.595-.03-.015-.058-.031-.086-.049-.154-.092-.169-.116-.121-.291.14-.517.284-1.032.427-1.547.027-.097.049-.195.082-.29.032-.094.07-.105.143-.036.453.425 1.001.483 1.579.422.152-.015.301-.046.451-.07.418-.064.71-.307.93-.657.194-.31.3-.655.37-1.012.125-.655.133-1.316.077-1.979-.003-.033-.006-.066-.044-.099-.063.027-.056.096-.07.147-.05.201-.106.4-.192.59-.328.73-.913 1.066-1.682 1.112-.373.023-.743-.022-1.105-.103-.58-.13-1.045-.448-1.417-.907-.38-.47-.624-1.008-.774-1.592-.029-.111-.037-.224-.039-.338-.013-1.372-.014-2.744.012-4.116.01-.487.004-.977.063-1.463.025-.206.059-.41.11-.612.138-.55.448-.98.915-1.29.51-.34 1.062-.583 1.662-.692zM12.896 7.05h.05c.147.007.166.028.12.169-.092.286-.192.57-.288.855-.134.4-.266.8-.4 1.198-.067.198-.078.209-.284.207h-.306c-.409.005-.814.036-1.216.124-.214.047-.423.108-.618.213-.257.137-.398.343-.396.644.003.354-.006.71-.002 1.064.003.224.035.254.259.254l2.386.002c.34 0 .344.004.344.347v1.908l-.001.06c-.01.166-.037.197-.204.2-.271.003-.543.001-.815.001h-1.65c-.06 0-.12.003-.179.004-.087.002-.136.046-.14.135-.003.08-.005.16-.005.241v8.552c0 .34.034.348-.33.413-.887.157-1.774.318-2.661.475-.183.033-.213.009-.218-.175-.005-.16-.002-.32-.002-.482v-8.693c0-.362-.001-.359-.364-.385-.264-.02-.528-.05-.791-.078-.155-.016-.18-.04-.182-.201-.005-.328-.002-.656-.002-.984L5 12.627l.001-.492c.002-.219.034-.249.256-.26l.793-.046c.212-.012.243-.036.246-.25.005-.516.031-1.03.091-1.542.054-.466.134-.926.274-1.376.185-.598.59-.987 1.139-1.238.384-.176.797-.244 1.213-.291.7-.079 1.402-.083 2.104-.08.577.002 1.153 0 1.73 0 .033 0 .066-.002.1 0zm4.124.052c.285-.057.292-.052.292.241v14.535c-.004.21-.041.205-.348.263l-2.697.506c-.27.05-.277.044-.277-.24V7.988c.002-.276.005-.28.28-.335l2.75-.55zm15.949 4.327c.081-.014.129.017.13.106l.002.2v9.999c-.002.3-.002.3-.298.36l-2.75.548c-.268.054-.274.05-.274-.236V12.307c.006-.184.018-.204.195-.243.544-.118 1.089-.233 1.633-.35l1.226-.258c.045-.01.09-.019.136-.026zm7.365-.05c.812-.008 1.545.217 2.17.751.518.442.796 1.026.933 1.686.044.21.057.423.056.638v7.388c-.004.217-.017.237-.229.278-.923.179-1.848.356-2.772.533-.039.007-.079.01-.118.014-.055.002-.09-.026-.094-.08-.005-.074-.007-.148-.007-.222 0-2.349-.002-4.698.002-7.047 0-.328-.095-.62-.264-.89-.212-.341-.522-.445-.892-.305-.265.102-.482.276-.679.479-.054.057-.074.125-.076.201-.003.087-.004.174-.004.261v6.646c0 .38.015.362-.358.433-.878.165-1.757.334-2.636.5l-.058.011c-.188.026-.207.01-.213-.182v-9.998c0-.405-.014-.372.362-.455l2.582-.567c.026-.006.052-.014.078-.018.129-.017.15 0 .162.132.03.34.029.682.035 1.023.001.07-.016.146.04.216.077-.043.091-.12.123-.182.152-.294.348-.553.6-.767.363-.307.78-.472 1.257-.476zM68.788 7.01c.07 0 .165-.036.203.036.036.07-.045.132-.082.192-1.87 3.042-3.743 6.083-5.616 9.125-1.238 2.012-2.478 4.024-3.713 6.038-.094.154-.197.223-.38.222-.942-.01-1.883-.005-2.825-.005h-.04c-.198-.005-.218-.023-.224-.217-.002-.066 0-.133 0-.2V10.953l-.001-.12c-.006-.218-.028-.237-.232-.196-.215.042-.429.09-.643.137-.039.008-.077.02-.117.023-.07.005-.116-.029-.125-.1-.008-.059-.01-.12-.01-.18v-2.41l.001-.08c.008-.172.021-.194.188-.228.318-.064.638-.122.957-.182.99-.183 1.981-.365 2.972-.55.343-.063.343-.066.343.288v4.197l.001 4.197c0 .104-.02.213.04.322.098-.05.13-.144.176-.22.69-1.11 1.377-2.224 2.066-3.336 1.085-1.755 2.172-3.507 3.252-5.265.111-.182.238-.25.448-.248 1.12.01 2.241.004 3.361.006zm-18.326 7.264c-.273-.355-.75-.444-1.12-.194-.333.225-.53.549-.533.958-.007 1.317-.002 2.634-.002 3.952 0 .168.025.333.084.491.186.502.7.717 1.167.464.392-.21.633-.54.634-1.011v-1.966c0-.675-.002-1.35.001-2.026.002-.253-.08-.473-.231-.668zM32.975 7.074c.073-.01.114.024.12.098.005.053.005.107.005.16v2.609c-.01.145-.023.169-.17.203-.27.062-.543.118-.815.176l-2.041.433c-.29.061-.295.059-.295-.232V7.932c0-.208.015-.227.214-.267.961-.192 1.922-.383 2.884-.573.032-.007.065-.013.098-.018z"/>
    </g>
</svg>
