<svg xmlns="http://www.w3.org/2000/svg" width="24" height="24" viewBox="0 0 24 24">
    <g fill="none" fill-rule="evenodd">
        <path fill="#FFF" d="M14.05 15.663c-.049.175-.126.35-.233.522-.024.036-.04.065-.053.085-.379.559-.962.836-1.672.84-.664 0-1.439-.244-2.254-.742-.102-.057-.208-.122-.319-.2-.142-.098-.179-.29-.081-.432.098-.143.29-.18.432-.082.09.062.184.123.286.184.717.436 1.378.652 1.928.652.498 0 .902-.187 1.159-.566.016-.029.032-.045.036-.058.074-.118.127-.244.163-.366.074-.253.061-.514-.04-.75-.11-.25-.323-.49-.653-.69-.22-.135-.493-.253-.824-.342-.84-.237-1.46-.571-1.794-1.02-.367-.493-.395-1.089-.004-1.81.261-.478.795-.775 1.472-.828.583-.045 1.285.093 1.998.456.155.078.216.265.135.42-.082.155-.265.217-.42.135-.608-.31-1.187-.428-1.668-.391-.46.036-.811.216-.966.501-.261.477-.257.852-.045 1.138.244.33.754.587 1.464.787.383.11.71.248.978.412.445.269.742.607.902.974.163.38.183.78.073 1.17M10.192 5.93c.416-.718.967-1.162 1.558-1.162.587 0 1.142.444 1.55 1.158.354.612.603 1.41.693 2.312H9.499c.094-.897.339-1.7.693-2.308m7.642 2.308h-3.066c-.094-1.04-.384-1.978-.8-2.695C13.414 4.592 12.635 4 11.75 4s-1.668.587-2.218 1.542c-.416.721-.706 1.655-.8 2.695h-3.07c-.363 0-.685.302-.66.665l.62 8.587c.064.93.643 1.693 1.736 1.693h8.784c.983 0 1.66-.616 1.737-1.693l.616-8.591c.028-.363-.298-.66-.66-.66"/>
    </g>
</svg>
